<svg id="Layer_1" data-name="Layer 1" xmlns="http://www.w3.org/2000/svg" viewBox="0 0 29.66 29.84"><defs><style>.cls-1{fill:#56c3bb;}.cls-2{fill:#b3b4b4;}</style></defs><title>Icon_SVG</title><path class="cls-1" d="M28.39,12.3a1.25,1.25,0,0,1-1.23-1,11.26,11.26,0,0,0-8.62-8.82A1.25,1.25,0,1,1,19.09,0,13.75,13.75,0,0,1,29.62,10.81a1.25,1.25,0,0,1-1,1.47Z"/><path class="cls-2" d="M13.77,29.84a13.77,13.77,0,1,1,0-27.55,1.25,1.25,0,1,1,0,2.5A11.27,11.27,0,1,0,25,16.06a1.25,1.25,0,0,1,2.5,0A13.79,13.79,0,0,1,13.77,29.84Z"/></svg>